<?xml version="1.0" encoding="UTF-8" standalone="no"?>
<!DOCTYPE svg PUBLIC "-//W3C//DTD SVG 1.1//EN" "http://www.w3.org/Graphics/SVG/1.1/DTD/svg11.dtd">
<svg width="100%" height="100%" viewBox="0 0 6410 994" version="1.1" xmlns="http://www.w3.org/2000/svg" xmlns:xlink="http://www.w3.org/1999/xlink" xml:space="preserve" xmlns:serif="http://www.serif.com/" style="fill-rule:evenodd;clip-rule:evenodd;stroke-linejoin:round;stroke-miterlimit:2;">
    <g transform="matrix(1,0,0,1,-2224.25,0)">
        <g id="Logotype" transform="matrix(4.01527,0,0,1.00281,-2264.57,0.383888)">
            <rect x="1117.94" y="-0.383" width="1596.41" height="990.867" style="fill:none;"/>
            <clipPath id="_clip1">
                <rect x="1117.94" y="-0.383" width="1596.41" height="990.867"/>
            </clipPath>
            <g clip-path="url(#_clip1)">
                <g transform="matrix(0.21855,0,0,0.875075,1125.63,18.5651)">
                    <path d="M448.303,73.31L154.71,73.31C102.299,73.31 59.748,115.861 59.748,168.273L59.748,927.976C59.748,980.387 102.299,1022.94 154.71,1022.94L914.413,1022.94C966.825,1022.94 1009.38,980.387 1009.38,927.976C1009.38,927.976 1009.38,1103.09 1009.38,343.388C1009.38,276.359 1104.34,276.359 1104.34,343.388C1104.34,1103.09 1104.34,927.976 1104.34,927.976C1104.34,1032.8 1019.24,1117.9 914.413,1117.9L154.71,1117.9C49.888,1117.9 -35.215,1032.8 -35.215,927.976L-35.215,168.273C-35.215,63.45 49.888,-21.653 154.71,-21.653L742.435,-21.653L742.135,-21.122L742.401,-21.123L585.183,257.148C581.03,264.498 581.093,273.5 585.349,280.792C589.604,288.083 597.411,292.566 605.853,292.566L814.072,292.566C823.133,292.566 831.404,297.724 835.391,305.861C839.378,313.997 838.386,323.694 832.833,330.855L415.442,869.154L496.49,531.955C498.189,524.884 496.554,517.424 492.052,511.712C487.55,506 480.679,502.666 473.406,502.666L247.21,502.666C238.775,502.666 230.973,498.19 226.715,490.908C222.458,483.625 222.384,474.631 226.522,467.28L448.303,73.31Z" style="fill:rgb(49,144,160);"/>
                </g>
                <g transform="matrix(0.19352,0,0,0.774857,982.742,16.0824)">
                    <path d="M2643.6,1013.76C2730.12,1013.76 2801.99,990.964 2859.2,945.378C2916.42,899.792 2945.02,841.647 2945.02,770.943C2945.02,733.73 2937.35,701.634 2922,674.655C2906.65,647.676 2883.16,625.348 2851.53,607.672C2833.85,598.369 2813.38,589.763 2790.12,581.856C2766.87,573.948 2725,563.482 2664.53,550.457C2633.83,543.945 2613.13,539.294 2602.43,536.503C2591.73,533.712 2582.66,531.386 2575.22,529.525C2555.68,522.083 2541.5,513.71 2532.66,504.407C2523.82,495.103 2519.4,483.009 2519.4,468.124C2519.4,443.936 2529.64,424.632 2550.1,410.212C2570.57,395.792 2598.01,388.582 2632.43,388.582C2672.44,388.582 2709.19,397.652 2742.68,415.794C2776.17,433.935 2803.61,459.286 2825.01,491.847L2938.05,389.977C2911.07,348.113 2870.6,314.621 2816.64,289.503C2762.68,264.384 2704.53,251.825 2642.2,251.825C2558.47,251.825 2489.86,273.455 2436.37,316.715C2382.88,359.975 2356.13,415.561 2356.13,483.474C2356.13,517.896 2362.64,547.666 2375.67,572.785C2388.69,597.904 2408.23,619.301 2434.28,636.977C2451.95,648.141 2472.89,657.677 2497.07,665.584C2521.26,673.492 2557.08,682.563 2604.53,692.796C2634.3,699.309 2658.25,704.425 2676.39,708.147C2694.53,711.868 2706.4,714.659 2711.98,716.519C2738.03,723.962 2766.4,743.731 2766.4,743.731C2766.4,743.731 2781.75,768.617 2781.75,786.293C2781.75,815.133 2769.43,837.461 2744.77,853.276C2720.12,869.092 2686.86,877 2644.99,877C2603.13,877 2562.66,866.068 2523.59,844.206C2484.51,822.343 2454.28,793.736 2432.88,758.384L2307.29,858.858C2338.92,906.305 2384.97,943.983 2445.44,971.892C2505.91,999.802 2571.97,1013.76 2643.6,1013.76Z" style="fill:white;fill-rule:nonzero;"/>
                    <path d="M3303.66,1006.78C3323.2,1006.78 3343.2,1005.85 3363.67,1003.99C3384.13,1002.13 3402.74,999.802 3419.49,997.011L3419.49,856.067C3403.67,857.928 3391.11,859.091 3381.81,859.556C3372.51,860.021 3362.27,860.254 3351.11,860.254C3312.03,860.254 3285.99,854.672 3272.96,843.508C3259.94,832.344 3253.42,813.738 3253.42,787.689L3253.42,408.119L3406.93,408.119L3406.93,265.78L3253.42,265.78L3253.42,50.876L3088.76,50.876L3088.76,265.78L2986.89,265.78L2986.89,408.119L3088.76,408.119L3088.76,814.203C3088.76,882.116 3105.27,931.191 3138.3,961.426C3171.32,991.661 3226.44,1006.78 3303.66,1006.78Z" style="fill:white;fill-rule:nonzero;"/>
                    <path d="M4164.67,265.78L3991.63,265.78L3815.8,779.316L3635.78,265.78L3459.95,265.78L3726.49,971.892L3698.58,1040.27C3687.42,1068.18 3674.39,1087.48 3659.51,1098.18C3644.62,1108.88 3622.3,1114.23 3592.53,1114.23C3584.15,1114.23 3576.24,1114 3568.8,1113.53C3561.36,1113.07 3550.66,1111.9 3536.71,1110.05L3536.71,1250.99C3553.45,1252.85 3566.01,1254.01 3574.38,1254.48C3582.76,1254.94 3592.99,1255.17 3605.08,1255.17C3670.21,1255.17 3723.24,1240.75 3764.17,1211.91C3805.1,1183.08 3838.13,1134.7 3863.25,1066.79L4164.67,265.78Z" style="fill:white;fill-rule:nonzero;"/>
                    <rect x="4255.38" y="-3.548" width="167.458" height="1001.95" style="fill:white;fill-rule:nonzero;"/>
                    <path d="M4908.46,1013.76C4981.03,1013.76 5044.99,995.615 5100.34,959.333C5155.69,923.05 5196.4,872.813 5222.44,808.621L5078.71,754.197C5067.55,790.48 5046.85,819.087 5016.61,840.019C4986.38,860.952 4950.33,871.418 4908.46,871.418C4854.5,871.418 4810.08,853.276 4775.19,816.994C4740.31,780.711 4719.61,731.405 4713.1,669.073L5226.63,669.073L5226.63,613.254C5226.63,505.337 5197.33,418.119 5138.72,351.602C5080.11,285.084 5001.03,251.825 4901.48,251.825C4851.25,251.825 4804.27,261.593 4760.54,281.13C4716.82,300.667 4678.67,329.041 4646.11,366.254C4616.34,400.676 4593.32,440.912 4577.04,486.963C4560.76,533.014 4552.61,581.623 4552.61,632.791C4552.61,686.749 4560.76,736.754 4577.04,782.805C4593.32,828.856 4616.81,869.092 4647.51,903.514C4680.07,938.866 4718.68,966.078 4763.33,985.149C4807.99,1004.22 4856.36,1013.76 4908.46,1013.76ZM4900.09,392.768C4948.47,392.768 4986.61,406.49 5014.52,433.935C5042.43,461.379 5056.85,497.894 5057.78,543.48L4721.47,543.48C4733.56,495.103 4755.19,457.891 4786.36,431.842C4817.52,405.793 4855.43,392.768 4900.09,392.768Z" style="fill:white;fill-rule:nonzero;"/>
                    <path d="M5621.55,-18.898C5540.61,-18.898 5478.75,1.336 5435.95,41.805C5393.16,82.274 5371.76,141.117 5371.76,218.333L5371.76,265.78L5269.89,265.78L5269.89,408.119L5371.76,408.119L5371.76,998.406L5539.22,998.406L5539.22,408.119L5688.53,408.119L5688.53,265.78L5539.22,265.78L5539.22,230.893C5539.22,193.68 5546.66,167.166 5561.55,151.35C5576.43,135.535 5602.95,127.627 5641.09,127.627L5671.09,127.627C5677.14,127.627 5683.88,128.092 5691.33,129.023L5691.33,-17.503C5679.23,-18.433 5669,-18.898 5660.62,-18.898L5621.55,-18.898Z" style="fill:white;fill-rule:nonzero;"/>
                    <path d="M6153.23,261.593C6107.64,261.593 6066.94,271.827 6031.12,292.294C5995.31,312.761 5969.03,340.205 5952.28,374.627L5952.28,265.78L5784.82,265.78L5784.82,998.406L5952.28,998.406L5952.28,613.254C5952.28,557.435 5969.49,512.547 6003.91,478.59C6038.34,444.634 6083.46,427.655 6139.28,427.655C6150.44,427.655 6160.67,427.888 6169.98,428.353C6179.28,428.818 6189.51,429.981 6200.68,431.842L6200.68,264.384C6191.37,263.454 6183,262.756 6175.56,262.291C6168.11,261.826 6160.67,261.593 6153.23,261.593Z" style="fill:white;fill-rule:nonzero;"/>
                    <path d="M6707.24,928.632C6720.26,959.333 6743.75,980.265 6777.71,991.429C6811.66,1002.59 6858.41,1004.92 6917.95,998.406L6917.95,868.627C6894.69,871.418 6878.18,869.092 6868.41,861.649C6858.64,854.207 6853.76,840.252 6853.76,819.785L6853.76,504.407C6853.76,422.538 6829.57,359.975 6781.19,316.715C6732.82,273.455 6663.05,251.825 6571.87,251.825C6496.52,251.825 6431.63,271.362 6377.2,310.435C6322.78,349.508 6285.8,402.071 6266.26,468.124L6423.95,504.407C6434.19,467.194 6450.7,439.982 6473.49,422.771C6496.28,405.56 6526.75,396.955 6564.9,396.955C6606.76,396.955 6638.16,406.49 6659.09,425.562C6680.02,444.634 6690.49,472.776 6690.49,509.989L6690.49,522.548L6488.15,564.412C6404.42,582.088 6342.55,609.765 6302.55,647.443C6262.54,685.121 6242.54,734.196 6242.54,794.666C6242.54,857.928 6265.8,909.793 6312.31,950.262C6358.83,990.731 6417.9,1010.97 6489.54,1010.97C6536.06,1010.97 6578.15,1003.76 6615.83,989.336C6653.51,974.916 6683.98,954.681 6707.24,928.632ZM6514.66,877C6482.1,877 6456.28,869.092 6437.21,853.276C6418.14,837.461 6408.6,815.598 6408.6,787.689C6408.6,760.71 6417.9,739.312 6436.51,723.497C6455.12,707.681 6487.21,694.657 6532.8,684.423L6690.49,650.932L6690.49,740.243C6690.49,781.177 6673.74,814.203 6640.25,839.322C6606.76,864.44 6564.9,877 6514.66,877Z" style="fill:white;fill-rule:nonzero;"/>
                    <path d="M7349.15,408.119C7389.16,408.119 7419.63,421.376 7440.56,447.89C7461.49,474.404 7471.96,513.245 7471.96,564.412L7471.96,998.406L7639.41,998.406L7639.41,568.599C7639.41,521.152 7653.37,482.544 7681.28,452.774C7709.19,423.004 7743.61,408.119 7784.55,408.119C7824.55,408.119 7855.02,421.376 7875.95,447.89C7896.88,474.404 7907.35,513.245 7907.35,564.412L7907.35,998.406L8074.8,998.406L8074.8,515.57C8074.8,436.493 8052.01,372.766 8006.43,324.39C7960.84,276.013 7900.84,251.825 7826.41,251.825C7782.68,251.825 7741.98,260.198 7704.31,276.943C7666.63,293.689 7631.51,319.273 7598.95,353.695C7577.55,320.203 7550.34,294.852 7517.31,277.641C7484.28,260.43 7446.84,251.825 7404.97,251.825C7364.04,251.825 7326.6,259.5 7292.64,274.85C7258.68,290.201 7229.14,313.226 7204.03,343.927L7204.03,265.78L7036.57,265.78L7036.57,998.406L7204.03,998.406L7204.03,568.599C7204.03,521.152 7217.98,482.544 7245.89,452.774C7273.8,423.004 7308.22,408.119 7349.15,408.119Z" style="fill:white;fill-rule:nonzero;"/>
                    <path d="M8554.85,1013.76C8627.41,1013.76 8691.37,995.615 8746.73,959.333C8802.08,923.05 8842.78,872.813 8868.83,808.621L8725.1,754.197C8713.93,790.48 8693.23,819.087 8663,840.019C8632.76,860.952 8596.71,871.418 8554.85,871.418C8500.89,871.418 8456.47,853.276 8421.58,816.994C8386.69,780.711 8365.99,731.405 8359.48,669.073L8873.02,669.073L8873.02,613.254C8873.02,505.337 8843.71,418.119 8785.1,351.602C8726.49,285.084 8647.42,251.825 8547.87,251.825C8497.64,251.825 8450.65,261.593 8406.93,281.13C8363.2,300.667 8325.06,329.041 8292.5,366.254C8262.73,400.676 8239.7,440.912 8223.42,486.963C8207.14,533.014 8199,581.623 8199,632.791C8199,686.749 8207.14,736.754 8223.42,782.805C8239.7,828.856 8263.19,869.092 8293.9,903.514C8326.46,938.866 8365.06,966.078 8409.72,985.149C8454.38,1004.22 8502.75,1013.76 8554.85,1013.76ZM8546.48,392.768C8594.85,392.768 8633,406.49 8660.91,433.935C8688.82,461.379 8703.24,497.894 8704.17,543.48L8367.85,543.48C8379.95,495.103 8401.58,457.891 8432.75,431.842C8463.91,405.793 8501.82,392.768 8546.48,392.768Z" style="fill:white;fill-rule:nonzero;"/>
                </g>
            </g>
        </g>
    </g>
</svg>
