<?xml version="1.0" encoding="UTF-8" standalone="no"?>
<!DOCTYPE svg PUBLIC "-//W3C//DTD SVG 1.1//EN" "http://www.w3.org/Graphics/SVG/1.1/DTD/svg11.dtd">
<svg width="100%" height="100%" viewBox="0 0 1000 1000" version="1.1" xmlns="http://www.w3.org/2000/svg" xmlns:xlink="http://www.w3.org/1999/xlink" xml:space="preserve" xmlns:serif="http://www.serif.com/" style="fill-rule:evenodd;clip-rule:evenodd;stroke-linejoin:round;stroke-miterlimit:2;">
    <g id="Logo" transform="matrix(1.00909,0,0,1.02038,-42.6352,-54.1484)">
        <rect x="42.251" y="53.067" width="990.996" height="980.023" style="fill:none;"/>
        <clipPath id="_clip1">
            <rect x="42.251" y="53.067" width="990.996" height="980.023"/>
        </clipPath>
        <g clip-path="url(#_clip1)">
            <g transform="matrix(0.869635,0,0,0.860006,72.8757,71.6882)">
                <path d="M448.303,73.31L154.71,73.31C102.299,73.31 59.748,115.861 59.748,168.273L59.748,927.976C59.748,980.387 102.299,1022.94 154.71,1022.94L914.413,1022.94C966.825,1022.94 1009.38,980.387 1009.38,927.976C1009.38,927.976 1009.38,1103.09 1009.38,343.388C1009.38,276.359 1104.34,276.359 1104.34,343.388C1104.34,1103.09 1104.34,927.976 1104.34,927.976C1104.34,1032.8 1019.24,1117.9 914.413,1117.9L154.71,1117.9C49.888,1117.9 -35.215,1032.8 -35.215,927.976L-35.215,168.273C-35.215,63.45 49.888,-21.653 154.71,-21.653L742.435,-21.653L742.135,-21.122L742.401,-21.123L585.183,257.148C581.03,264.498 581.093,273.5 585.349,280.792C589.604,288.083 597.411,292.566 605.853,292.566L814.072,292.566C823.133,292.566 831.404,297.724 835.391,305.861C839.378,313.997 838.386,323.694 832.833,330.855L415.442,869.154L496.49,531.955C498.189,524.884 496.554,517.424 492.052,511.712C487.55,506 480.679,502.666 473.406,502.666L247.21,502.666C238.775,502.666 230.973,498.19 226.715,490.908C222.458,483.625 222.384,474.631 226.522,467.28L448.303,73.31Z" style="fill:rgb(49,144,160);"/>
            </g>
        </g>
    </g>
</svg>
